<svg width="135" height="71" viewBox="0 0 135 71" fill="none" xmlns="http://www.w3.org/2000/svg">
<path d="M17.39 22.728H17.464C17.5627 22.8513 17.649 22.9993 17.723 23.172C17.8217 23.3447 17.871 23.4927 17.871 23.616C17.6737 25.392 17.2667 27.094 16.65 28.722C16.0333 30.3253 15.2317 31.8917 14.245 33.421C13.431 34.7037 12.4813 35.8383 11.396 36.825C10.3107 37.8117 9.102 38.6873 7.77 39.452C7.74533 39.4767 7.63433 39.415 7.437 39.267C7.68367 39.0943 7.992 38.934 8.362 38.786C8.31267 38.7367 8.27567 38.6997 8.251 38.675C8.251 38.6503 8.22633 38.6133 8.177 38.564C8.029 38.6133 7.881 38.6627 7.733 38.712C7.585 38.7367 7.44933 38.7737 7.326 38.823C7.326 38.7737 7.30133 38.749 7.252 38.749L7.215 38.675C7.48633 38.4283 7.74533 38.1817 7.992 37.935C8.26333 37.6637 8.53467 37.4047 8.806 37.158C8.806 37.1087 8.78133 37.084 8.732 37.084L8.695 37.01C8.57167 37.0593 8.44833 37.1087 8.325 37.158C8.20167 37.2073 8.07833 37.2567 7.955 37.306C7.93033 37.2813 7.90567 37.269 7.881 37.269C7.881 37.269 7.86867 37.2567 7.844 37.232C7.918 37.1333 7.992 37.0347 8.066 36.936C8.14 36.8127 8.22633 36.7017 8.325 36.603C8.67033 36.2577 9.01567 35.937 9.361 35.641C9.731 35.3203 10.064 34.9873 10.36 34.642C10.5573 34.42 10.6807 34.1733 10.73 33.902C10.7793 33.606 10.8533 33.3223 10.952 33.051C11.0013 32.8537 11.0753 32.681 11.174 32.533C11.2973 32.3357 11.4207 32.1507 11.544 31.978C11.6673 31.8053 11.7783 31.6203 11.877 31.423C12.247 30.5103 12.617 29.5977 12.987 28.685C13.3817 27.7477 13.7763 26.798 14.171 25.836H12.839C12.9377 25.8853 13.0117 25.9223 13.061 25.947C13.135 25.9717 13.1967 26.0087 13.246 26.058C12.6293 26.1567 12.062 26.28 11.544 26.428C11.47 26.4527 11.4083 26.502 11.359 26.576C11.3097 26.65 11.2603 26.724 11.211 26.798C11.2357 26.8473 11.2603 26.8843 11.285 26.909C11.3343 26.9337 11.359 26.9707 11.359 27.02C11.063 27.02 10.7547 27.0077 10.434 26.983C10.1133 26.9337 9.81733 26.946 9.546 27.02C8.954 27.1433 8.362 27.279 7.77 27.427C7.178 27.5503 6.586 27.6737 5.994 27.797C5.87067 27.8217 5.75967 27.8463 5.661 27.871C5.56233 27.8957 5.45133 27.908 5.328 27.908C5.30333 28.426 5.27867 28.944 5.254 29.462C5.22933 29.9553 5.217 30.461 5.217 30.979C5.16767 32.459 5.106 33.939 5.032 35.419C4.958 36.899 4.884 38.379 4.81 39.859C4.76067 40.969 4.71133 42.0667 4.662 43.152C4.61267 44.2127 4.56333 45.298 4.514 46.408C4.514 46.6793 4.477 46.9383 4.403 47.185C4.35367 47.4317 4.30433 47.6907 4.255 47.962H4.107V45.816C4.033 45.964 3.98367 46.1243 3.959 46.297C3.959 46.445 3.93433 46.6053 3.885 46.778C3.86033 46.926 3.811 47.0863 3.737 47.259C3.663 47.4317 3.52733 47.592 3.33 47.74V44.595H3.145L2.923 45.668H2.738C2.56533 44.5087 2.50367 43.3617 2.553 42.227C2.627 41.0677 2.60233 39.9083 2.479 38.749V41.783C2.405 41.0183 2.31867 40.2907 2.22 39.6C2.146 38.8847 2.08433 38.1693 2.035 37.454C1.98567 37.0593 1.94867 36.677 1.924 36.307C1.924 35.9123 1.924 35.5053 1.924 35.086C1.94867 33.9267 1.97333 32.7797 1.998 31.645C2.02267 30.5103 2.05967 29.3757 2.109 28.241C1.98567 28.167 1.87467 28.0807 1.776 27.982C1.702 27.8587 1.64033 27.6983 1.591 27.501C1.68967 27.501 1.776 27.4887 1.85 27.464C1.94867 27.4393 2.04733 27.427 2.146 27.427V27.094C1.776 27.168 1.52933 27.094 1.406 26.872C1.28267 26.65 1.184 26.4403 1.11 26.243C1.01133 26.021 1.08533 25.7867 1.332 25.54C1.57867 25.2687 1.83767 25.1083 2.109 25.059C2.035 24.763 1.91167 24.504 1.739 24.282V22.654C1.86233 22.5553 1.961 22.4567 2.035 22.358C2.13367 22.2593 2.23233 22.1607 2.331 22.062V21.766H2.886C3.05867 21.8647 3.20667 21.951 3.33 22.025C3.45333 22.099 3.589 22.1607 3.737 22.21C4.37833 22.4567 4.81 22.728 5.032 23.024C5.254 23.32 5.365 23.8257 5.365 24.541V24.652C6.401 24.5287 7.41233 24.4177 8.399 24.319C9.38567 24.1957 10.3723 24.0723 11.359 23.949C11.8277 23.8997 12.284 23.8503 12.728 23.801C13.1967 23.727 13.653 23.6653 14.097 23.616C14.1957 23.5913 14.282 23.5543 14.356 23.505C14.4547 23.431 14.541 23.357 14.615 23.283C14.7383 23.135 14.8493 22.9993 14.948 22.876C15.0713 22.7527 15.207 22.5923 15.355 22.395C15.4783 22.8143 15.577 23.1597 15.651 23.431H15.799C15.8237 23.2337 15.8853 22.9747 15.984 22.654C16.1073 22.6047 16.2307 22.5553 16.354 22.506C16.502 22.4567 16.6747 22.4073 16.872 22.358C16.946 22.4073 17.0323 22.4567 17.131 22.506C17.2297 22.5307 17.316 22.5923 17.39 22.691V22.728ZM4.958 26.946V26.687H4.847V26.946H4.958ZM4.847 23.764V24.652H4.958V23.764H4.847ZM3.478 24.726H3.256V24.874H3.478V24.726ZM3.182 27.242H3.367V26.946H3.182V27.242ZM3.071 33.976C3.145 33.0387 3.19433 32.1013 3.219 31.164C3.26833 30.202 3.31767 29.2523 3.367 28.315H3.182C3.13267 29.2523 3.08333 30.1897 3.034 31.127C3.00933 32.0643 2.97233 33.0017 2.923 33.939H3.071V33.976ZM5.328 26.872C5.87067 26.7733 6.42567 26.687 6.993 26.613C7.56033 26.5143 8.12767 26.4157 8.695 26.317H7.437C7.23967 26.3417 7.05467 26.3787 6.882 26.428C6.70933 26.4773 6.52433 26.502 6.327 26.502C6.15433 26.5267 5.994 26.5513 5.846 26.576C5.698 26.6007 5.52533 26.613 5.328 26.613V26.872ZM13.616 30.239C14.1093 29.3757 14.504 28.4753 14.8 27.538C15.1207 26.6007 15.3797 25.6387 15.577 24.652C15.2317 25.5893 14.8987 26.5267 14.578 27.464C14.2573 28.3767 13.9367 29.3017 13.616 30.239ZM35.8617 44.41C35.7877 44.41 35.7383 44.4223 35.7137 44.447C35.763 44.595 35.8 44.743 35.8247 44.891C35.8493 45.039 35.874 45.1747 35.8987 45.298L35.7877 45.409C35.689 45.2857 35.578 45.1747 35.4547 45.076C35.356 44.9773 35.2697 44.8663 35.1957 44.743C34.9737 44.3237 34.7393 43.9043 34.4927 43.485C34.2707 43.0657 34.061 42.6463 33.8637 42.227C33.7157 41.8817 33.58 41.5487 33.4567 41.228C33.3333 40.9073 33.173 40.5867 32.9757 40.266C32.877 40.0687 32.7537 39.8837 32.6057 39.711C32.4577 39.5383 32.3343 39.341 32.2357 39.119C32.063 38.749 31.915 38.3667 31.7917 37.972C31.6683 37.5527 31.5327 37.1457 31.3847 36.751C31.2367 36.4303 31.0393 36.122 30.7927 35.826C30.7433 35.7767 30.657 35.7643 30.5337 35.789C30.4103 35.8137 30.2993 35.8507 30.2007 35.9C30.25 35.974 30.2747 36.048 30.2747 36.122C30.2993 36.1713 30.3363 36.2453 30.3857 36.344C30.1143 36.344 29.8307 36.3317 29.5347 36.307C29.2387 36.2577 28.9303 36.2207 28.6097 36.196V36.307C28.659 36.307 28.7083 36.3193 28.7577 36.344C28.807 36.3687 28.8563 36.3933 28.9057 36.418C28.3383 36.4673 27.7587 36.529 27.1667 36.603C26.5993 36.6523 26.032 36.7017 25.4647 36.751C25.2427 36.751 25.07 36.8127 24.9467 36.936C24.848 37.0593 24.774 37.2073 24.7247 37.38C24.0587 39.2053 23.3063 40.9813 22.4677 42.708C21.629 44.4347 20.7163 46.1243 19.7297 47.777C19.6557 47.9003 19.5693 48.0113 19.4707 48.11C19.3967 48.2333 19.2857 48.332 19.1377 48.406L19.8407 46.593H19.7297C19.5817 46.815 19.4213 47.037 19.2487 47.259C19.1007 47.481 18.9527 47.6907 18.8047 47.888C18.7553 47.888 18.7183 47.8757 18.6937 47.851C18.669 47.8263 18.632 47.8017 18.5827 47.777C18.78 47.2837 18.965 46.8027 19.1377 46.334C19.335 45.8407 19.5323 45.3473 19.7297 44.854C19.6803 44.854 19.6433 44.8417 19.6187 44.817C19.6187 44.7923 19.594 44.7677 19.5447 44.743C19.4213 44.891 19.298 45.039 19.1747 45.187C19.0513 45.335 18.928 45.4953 18.8047 45.668C18.78 45.668 18.7553 45.668 18.7307 45.668C18.7307 45.668 18.706 45.6433 18.6567 45.594C18.706 45.3967 18.7553 45.2117 18.8047 45.039C18.854 44.8663 18.9157 44.6937 18.9897 44.521C19.187 44.1017 19.3843 43.6947 19.5817 43.3C19.8037 42.9053 19.9887 42.4983 20.1367 42.079C20.482 41.191 20.7533 40.3153 20.9507 39.452C21.1727 38.5887 21.333 37.6883 21.4317 36.751C21.4317 36.7017 21.407 36.6523 21.3577 36.603C21.333 36.529 21.296 36.4673 21.2467 36.418C21.3947 36.2207 21.5057 36.085 21.5797 36.011C21.3577 35.863 21.148 35.715 20.9507 35.567C20.7533 35.3943 20.556 35.2463 20.3587 35.123C20.408 34.901 20.4573 34.679 20.5067 34.457C20.556 34.235 20.63 33.9883 20.7287 33.717C20.852 33.717 21.0123 33.7047 21.2097 33.68C21.4317 33.6553 21.6413 33.606 21.8387 33.532C22.036 33.458 22.2087 33.3717 22.3567 33.273C22.5293 33.1743 22.6403 33.051 22.6897 32.903C22.9857 31.9657 23.257 31.016 23.5037 30.054C23.7503 29.092 24.0093 28.1423 24.2807 27.205C23.4173 27.1557 22.5663 27.1063 21.7277 27.057C20.9137 27.0077 20.075 26.9337 19.2117 26.835C18.9403 26.8103 18.7307 26.7857 18.5827 26.761C18.4347 26.7363 18.3237 26.6993 18.2497 26.65C18.1757 26.576 18.114 26.4773 18.0647 26.354C18.0153 26.2307 17.966 26.0703 17.9167 25.873H24.4657C23.8243 25.8237 23.1707 25.7743 22.5047 25.725C21.8387 25.6757 21.185 25.6263 20.5437 25.577C20.1737 25.577 19.8037 25.577 19.4337 25.577C19.0637 25.5523 18.706 25.4783 18.3607 25.355C18.1633 25.3057 18.003 25.1947 17.8797 25.022C17.781 24.8247 17.67 24.6643 17.5467 24.541C17.6947 24.2697 17.818 24.0477 17.9167 23.875C18.04 23.6777 18.151 23.5173 18.2497 23.394C19.3597 23.394 20.445 23.4063 21.5057 23.431C22.5663 23.4557 23.627 23.4803 24.6877 23.505C24.7863 23.505 24.8973 23.4927 25.0207 23.468C25.144 23.4187 25.2057 23.3693 25.2057 23.32C25.255 22.9747 25.3907 22.7033 25.6127 22.506C25.8347 22.3087 26.0443 22.099 26.2417 21.877C26.365 21.729 26.513 21.6057 26.6857 21.507C26.883 21.4083 27.0433 21.2973 27.1667 21.174C27.1667 21.2233 27.1667 21.2603 27.1667 21.285C27.1913 21.3343 27.2037 21.3837 27.2037 21.433C27.2037 21.4577 27.216 21.4947 27.2407 21.544C27.438 21.544 27.549 21.4823 27.5737 21.359C27.623 21.211 27.66 21.063 27.6847 20.915C27.7093 20.7423 27.7587 20.6067 27.8327 20.508C27.9313 20.3847 28.1163 20.36 28.3877 20.434C28.437 20.2613 28.4617 20.0887 28.4617 19.916C28.4863 19.7433 28.5233 19.5583 28.5727 19.361C28.992 19.435 29.2757 19.842 29.4237 20.582C29.5717 21.322 29.5593 22.2717 29.3867 23.431C31.2613 23.209 33.1113 22.9993 34.9367 22.802C36.7867 22.58 38.6367 22.3703 40.4867 22.173V22.358C40.314 22.4073 40.1413 22.469 39.9687 22.543C39.796 22.5923 39.6233 22.6417 39.4507 22.691V22.839L40.6347 22.913V23.098C40.388 23.1967 40.1537 23.283 39.9317 23.357C39.7097 23.4063 39.4877 23.468 39.2657 23.542C39.0437 23.616 38.8217 23.69 38.5997 23.764C38.4023 23.838 38.1927 23.9613 37.9707 24.134C38.1433 24.134 38.3037 24.134 38.4517 24.134C38.5997 24.134 38.797 24.1587 39.0437 24.208C38.871 24.3313 38.723 24.43 38.5997 24.504C38.4763 24.578 38.353 24.6397 38.2297 24.689C37.3417 24.8863 36.4537 25.0713 35.5657 25.244C34.7023 25.4167 33.8267 25.614 32.9387 25.836C32.7413 25.8853 32.5563 25.984 32.3837 26.132C32.211 26.28 32.1493 26.502 32.1987 26.798C32.618 28.796 33.062 30.794 33.5307 32.792C33.8267 32.792 34.1227 32.792 34.4187 32.792C34.7393 32.792 35.0477 32.8167 35.3437 32.866V33.014C35.1217 33.088 34.8997 33.162 34.6777 33.236C34.4557 33.2853 34.2337 33.3347 34.0117 33.384C34.209 33.4333 34.4063 33.4827 34.6037 33.532C34.8257 33.5567 35.0353 33.5937 35.2327 33.643V33.865C35.0107 33.9143 34.7887 33.976 34.5667 34.05C34.3693 34.124 34.172 34.1857 33.9747 34.235C34.1967 35.3203 34.468 36.381 34.7887 37.417C35.1093 38.4283 35.4547 39.4397 35.8247 40.451C36.1947 41.4623 36.5647 42.4737 36.9347 43.485C37.3293 44.4717 37.687 45.483 38.0077 46.519C37.8843 46.3217 37.761 46.1243 37.6377 45.927C37.539 45.7297 37.428 45.5323 37.3047 45.335C37.28 45.335 37.2553 45.335 37.2307 45.335L37.1567 45.409C37.206 45.6063 37.2553 45.8037 37.3047 46.001C37.354 46.1737 37.4033 46.3587 37.4527 46.556C37.4033 46.556 37.3417 46.593 37.2677 46.667C37.021 46.297 36.7743 45.927 36.5277 45.557C36.3057 45.1623 36.0837 44.78 35.8617 44.41ZM25.7977 27.131C25.6743 27.131 25.6003 27.1063 25.5757 27.057C25.3043 28.0437 25.0207 29.0303 24.7247 30.017C24.4533 31.0037 24.182 31.978 23.9107 32.94C24.0093 32.94 24.071 32.9647 24.0957 33.014C24.3917 32.0273 24.6753 31.053 24.9467 30.091C25.2427 29.1043 25.5387 28.1177 25.8347 27.131H25.7977ZM28.6837 26.724C28.5603 26.8473 28.4247 26.946 28.2767 27.02C28.1533 27.0693 28.067 27.1433 28.0177 27.242C27.7463 28.204 27.475 29.1783 27.2037 30.165C26.9323 31.127 26.6487 32.089 26.3527 33.051H29.2757C29.5963 33.051 29.8307 33.014 29.9787 32.94C30.1267 32.866 30.1143 32.5947 29.9417 32.126C29.6703 31.2873 29.436 30.4363 29.2387 29.573C29.066 28.685 28.8687 27.7477 28.6467 26.761H28.6837V26.724ZM29.9047 26.724L31.1997 32.755H31.3847C31.1873 31.7437 30.9777 30.7447 30.7557 29.758C30.5583 28.7467 30.361 27.7353 30.1637 26.724H29.9047ZM58.5693 41.598C58.7419 41.746 58.9146 41.894 59.0873 42.042C59.2599 42.1653 59.4449 42.301 59.6423 42.449C59.6423 42.7203 59.6053 42.9793 59.5313 43.226C59.4819 43.448 59.3216 43.6453 59.0503 43.818C58.9763 43.8673 58.9393 43.966 58.9393 44.114C58.9393 44.262 58.9393 44.3977 58.9393 44.521C58.9393 44.6443 58.9639 44.78 59.0133 44.928C59.0873 45.0513 59.0996 45.187 59.0503 45.335C58.7789 44.9157 58.5569 44.4963 58.3843 44.077H58.2363C58.2856 44.299 58.3226 44.521 58.3473 44.743C58.3719 44.9403 58.4089 45.15 58.4583 45.372L58.2733 45.446C58.0759 45.0513 57.8539 44.6567 57.6073 44.262C57.3853 43.8427 57.1756 43.4233 56.9783 43.004C56.9289 43.004 56.8919 43.0287 56.8673 43.078C56.8426 43.1027 56.8179 43.115 56.7933 43.115L56.9413 43.966C56.8919 43.966 56.8549 43.9907 56.8303 44.04C56.7316 43.9167 56.6206 43.8057 56.4973 43.707C56.3986 43.5837 56.3246 43.448 56.2753 43.3C56.1273 42.93 55.9916 42.56 55.8683 42.19C55.7449 41.82 55.5969 41.4623 55.4243 41.117C55.1776 40.6237 54.9433 40.1427 54.7213 39.674C54.4993 39.1807 54.1909 38.7737 53.7963 38.453C53.2289 37.935 52.8096 37.343 52.5383 36.677C52.2669 36.011 51.9586 35.382 51.6133 34.79C50.9226 33.7047 50.3059 32.5947 49.7633 31.46C49.2453 30.3007 48.7026 29.1537 48.1353 28.019C48.0119 27.8217 47.8763 27.6243 47.7283 27.427C47.6049 27.205 47.4816 26.983 47.3583 26.761C47.3089 26.7117 47.2473 26.6623 47.1733 26.613C47.0993 26.5637 46.9883 26.4897 46.8403 26.391C46.7416 29.9183 46.6429 33.384 46.5443 36.788C46.4456 40.1673 46.3469 43.5713 46.2483 47H46.1743C46.1249 46.6547 46.0633 46.3093 45.9893 45.964C45.9399 45.6187 45.8906 45.2733 45.8413 44.928C45.7673 45.076 45.7303 45.224 45.7303 45.372C45.7549 45.52 45.7673 45.6803 45.7673 45.853C45.7673 46.001 45.7426 46.1613 45.6933 46.334C45.6439 46.482 45.5453 46.6177 45.3973 46.741C45.2986 46.2477 45.2123 45.7543 45.1383 45.261C45.0643 44.7677 44.9903 44.2743 44.9163 43.781H44.6943C44.6943 43.9537 44.6819 44.1263 44.6573 44.299C44.6326 44.4717 44.6079 44.6567 44.5833 44.854H44.3613C44.3119 44.7307 44.2626 44.5827 44.2133 44.41C44.1886 44.2373 44.1763 44.077 44.1763 43.929C44.1763 43.0163 44.1639 42.1037 44.1393 41.191C44.1393 40.2783 44.1023 39.378 44.0283 38.49V40.784H43.8803V33.051H43.7323V37.454H43.4733C43.2759 36.7387 43.2266 36.0233 43.3253 35.308C43.4239 34.5927 43.4609 33.8773 43.4363 33.162V36.825H43.5103V27.205H41.4013C40.9326 27.205 40.5626 27.0817 40.2913 26.835C40.0199 26.5883 39.8103 26.28 39.6623 25.91C39.6129 25.7867 39.6129 25.651 39.6623 25.503C39.7363 25.3303 39.8103 25.1453 39.8843 24.948C40.0816 25.3427 40.3159 25.6263 40.5873 25.799C40.8586 25.9717 41.1423 26.0827 41.4383 26.132C41.7343 26.1567 42.0426 26.1443 42.3633 26.095C42.6839 26.0457 43.0046 26.0087 43.3253 25.984C43.1773 25.984 43.0169 25.9593 42.8443 25.91C42.6963 25.836 42.5606 25.8237 42.4373 25.873C41.8453 26.021 41.3889 25.9717 41.0683 25.725C40.7476 25.4783 40.4886 25.1207 40.2913 24.652C40.3653 24.4547 40.4269 24.282 40.4763 24.134C40.5503 23.986 40.6119 23.801 40.6613 23.579C41.0559 23.6283 41.4753 23.6653 41.9193 23.69C42.3879 23.7147 42.8566 23.7393 43.3253 23.764C43.4239 23.5173 43.4733 23.2583 43.4733 22.987C43.4733 22.691 43.4733 22.4073 43.4733 22.136C43.4979 21.84 43.5719 21.5687 43.6953 21.322C43.8186 21.0507 44.0529 20.804 44.3983 20.582C44.4476 21.1493 44.4846 21.7043 44.5093 22.247C44.5339 22.765 44.5709 23.283 44.6203 23.801H44.7683V20.767C45.0396 20.5697 45.3356 20.4093 45.6563 20.286C45.8289 20.36 46.0016 20.434 46.1743 20.508C46.3716 20.5573 46.5936 20.6437 46.8403 20.767V23.875C46.9883 24.023 47.1363 24.0723 47.2843 24.023C47.4569 23.9737 47.6173 23.912 47.7653 23.838C47.9379 23.764 48.0983 23.7393 48.2463 23.764C48.3943 23.7887 48.5053 23.9613 48.5793 24.282C48.8999 23.986 49.2699 23.8503 49.6893 23.875C50.1333 23.8997 50.4786 24.0847 50.7253 24.43C50.7746 24.4793 50.8116 24.5657 50.8363 24.689C50.8609 24.7877 50.8486 24.8617 50.7993 24.911C50.6019 25.1577 50.5526 25.3797 50.6513 25.577C50.7746 25.7743 50.8856 25.9717 50.9843 26.169C51.7736 27.8957 52.5753 29.61 53.3893 31.312C54.2279 33.014 55.0419 34.716 55.8313 36.418C55.8806 36.5167 55.9299 36.6153 55.9793 36.714C56.0286 36.788 56.1149 36.8743 56.2383 36.973C56.3123 34.4817 56.3986 32.0027 56.4973 29.536C56.5959 27.0693 56.6823 24.6027 56.7563 22.136H57.0153C57.0646 22.4073 57.1139 22.691 57.1633 22.987C57.2126 23.2583 57.2619 23.5667 57.3113 23.912C57.3606 23.5913 57.3976 23.3077 57.4223 23.061C57.4716 22.7897 57.5209 22.5307 57.5703 22.284H57.8293C57.8786 22.7033 57.9279 23.1227 57.9773 23.542C58.0266 23.9613 58.0759 24.3807 58.1253 24.8H58.3103C58.3596 24.6767 58.3966 24.541 58.4213 24.393C58.4459 24.2203 58.4829 24.0723 58.5323 23.949H58.7173C58.7666 24.6397 58.8283 25.3303 58.9023 26.021C58.9763 26.687 59.0503 27.3777 59.1243 28.093H59.0873L58.9393 27.575H58.8283V29.684H58.9023L58.9763 28.796H59.1243C59.1243 29.1413 59.1366 29.462 59.1613 29.758C59.1859 30.054 59.1983 30.3747 59.1983 30.72C59.2229 30.5967 59.2353 30.498 59.2353 30.424C59.2599 30.35 59.2846 30.2637 59.3093 30.165H59.4203V34.383H59.5683V31.83H59.6053V39.859C59.6053 40.1797 59.6299 40.5127 59.6793 40.858C59.7286 41.1787 59.7779 41.5117 59.8273 41.857C59.6053 41.783 59.3709 41.7337 59.1243 41.709C58.9023 41.6597 58.6926 41.6103 58.4953 41.561C58.3966 41.3637 58.3473 41.2033 58.3473 41.08C58.3966 39.7727 58.4459 38.4777 58.4953 37.195C58.5693 35.8877 58.6309 34.5803 58.6803 33.273H58.4583C58.4336 33.8403 58.4089 34.4077 58.3843 34.975C58.3596 35.5177 58.3349 36.0727 58.3103 36.64C58.2609 37.38 58.2239 38.12 58.1993 38.86C58.1993 39.6 58.1869 40.3277 58.1623 41.043C58.1623 41.1417 58.1993 41.228 58.2733 41.302C58.3719 41.376 58.4459 41.4623 58.4953 41.561H58.5693V41.598ZM48.7643 26.354C48.6903 26.354 48.6286 26.4033 48.5793 26.502C49.1713 27.686 49.7509 28.8577 50.3183 30.017C50.9103 31.1517 51.5023 32.311 52.0943 33.495C52.1683 33.495 52.2176 33.4703 52.2423 33.421C51.6749 32.237 51.0953 31.0653 50.5033 29.906C49.9359 28.7467 49.3563 27.575 48.7643 26.391V26.354ZM44.5093 32.866C44.5339 32.5207 44.5586 32.126 44.5833 31.682C44.6326 31.2133 44.6696 30.7323 44.6943 30.239V27.427H44.5093V32.866ZM57.0523 27.538H56.9783V31.608H57.0523V27.538ZM45.8413 44.003H45.9153V40.488H45.8413V44.003Z" fill="black"/>
<circle cx="99.5" cy="35.5" r="35.5" fill="#562CF0"/>
<path d="M83.354 43.3C82.614 43.4233 81.8617 43.5467 81.097 43.67C80.357 43.7933 79.6047 43.9167 78.84 44.04V44.373C79.1113 44.373 79.358 44.3607 79.58 44.336C79.802 44.2867 80.0487 44.262 80.32 44.262C80.32 44.3853 80.3447 44.4717 80.394 44.521C80.1967 44.5703 80.0117 44.632 79.839 44.706C79.691 44.7553 79.5307 44.8047 79.358 44.854C78.7413 44.9773 78.137 45.1007 77.545 45.224C76.953 45.3473 76.3487 45.4953 75.732 45.668C75.51 45.7173 75.288 45.816 75.066 45.964C74.844 46.0873 74.6097 46.186 74.363 46.26C73.919 46.3833 73.4873 46.4203 73.068 46.371C72.994 46.371 72.8953 46.3093 72.772 46.186C72.6733 46.038 72.624 45.9147 72.624 45.816C72.624 45.372 72.624 44.928 72.624 44.484C72.6487 44.04 72.6857 43.596 72.735 43.152C72.735 43.0287 72.7473 42.9177 72.772 42.819C72.7967 42.7203 72.7843 42.6217 72.735 42.523C72.4143 41.4377 72.2663 40.3523 72.291 39.267C72.3157 38.157 72.3033 37.0593 72.254 35.974C72.254 35.8753 72.2293 35.8013 72.18 35.752C71.366 35.8753 70.663 35.7767 70.071 35.456C69.5037 35.1353 69.2693 34.6913 69.368 34.124C69.59 34.198 69.812 34.2843 70.034 34.383C70.2807 34.457 70.5273 34.5063 70.774 34.531C70.996 34.5803 71.218 34.5927 71.44 34.568C71.6867 34.5433 71.921 34.5063 72.143 34.457C71.847 34.4077 71.551 34.3707 71.255 34.346C70.959 34.3213 70.6753 34.2597 70.404 34.161C70.1573 34.0623 69.9477 33.902 69.775 33.68C69.6023 33.458 69.4913 33.125 69.442 32.681C69.5407 32.607 69.6393 32.5453 69.738 32.496C69.8613 32.422 69.96 32.3357 70.034 32.237C70.2067 31.9903 70.3917 31.867 70.589 31.867C70.737 31.867 70.9097 31.9287 71.107 32.052C71.255 32.126 71.4277 32.163 71.625 32.163C71.8223 32.163 72.0197 32.1753 72.217 32.2V27.982C71.7977 28.0313 71.3907 28.0807 70.996 28.13C70.6013 28.1547 70.182 28.1793 69.738 28.204C69.738 28.0807 69.7133 27.9573 69.664 27.834C69.6393 27.686 69.6147 27.5873 69.59 27.538C69.4173 27.686 69.2323 27.8587 69.035 28.056C68.8623 28.2287 68.6897 28.4013 68.517 28.574C68.3197 28.4753 68.147 28.4013 67.999 28.352C67.851 28.3027 67.7153 28.2163 67.592 28.093C67.4933 27.9943 67.407 27.8833 67.333 27.76C67.259 27.612 67.2343 27.4763 67.259 27.353C67.3823 26.7857 67.5797 26.2553 67.851 25.762C68.1223 25.244 68.5787 24.9233 69.22 24.8C69.6887 24.6767 70.1697 24.615 70.663 24.615C71.181 24.5903 71.7237 24.5533 72.291 24.504V22.765C72.3403 22.099 72.587 21.5563 73.031 21.137C73.4997 20.693 74.067 20.4957 74.733 20.545C74.8563 20.545 74.9797 20.6067 75.103 20.73C75.2263 20.8287 75.362 20.9397 75.51 21.063C75.288 21.1863 75.0907 21.3097 74.918 21.433C74.77 21.5563 74.6097 21.6427 74.437 21.692C73.993 21.7907 73.697 21.9757 73.549 22.247C73.401 22.5183 73.3393 22.8637 73.364 23.283V24.43H73.586C73.586 24.208 73.5983 23.9983 73.623 23.801C73.6477 23.6037 73.6353 23.4063 73.586 23.209C73.5367 22.839 73.586 22.5553 73.734 22.358C73.882 22.1607 74.1287 22.0003 74.474 21.877C74.6467 21.8277 74.807 21.7783 74.955 21.729C75.1277 21.655 75.288 21.5933 75.436 21.544C75.806 21.766 76.0403 21.988 76.139 22.21C76.2623 22.432 76.2993 22.6663 76.25 22.913C76.2253 23.135 76.139 23.3693 75.991 23.616C75.843 23.8627 75.6827 24.097 75.51 24.319C75.6087 24.4423 75.6703 24.5163 75.695 24.541H83.687V24.8C83.4403 24.8493 83.1937 24.8987 82.947 24.948C82.7003 24.9973 82.4413 25.0467 82.17 25.096C82.4413 25.1453 82.688 25.1947 82.91 25.244C83.132 25.2687 83.354 25.3057 83.576 25.355V25.54C83.28 25.614 82.9717 25.688 82.651 25.762C82.355 25.8113 81.9973 25.873 81.578 25.947C81.7753 26.0457 81.9233 26.132 82.022 26.206C82.1453 26.2553 82.2563 26.3047 82.355 26.354V26.502C81.9357 26.5513 81.504 26.613 81.06 26.687C80.616 26.761 80.172 26.8227 79.728 26.872C79.21 26.946 78.7043 27.02 78.211 27.094C77.7177 27.1433 77.212 27.1927 76.694 27.242V27.464C76.916 27.464 77.1257 27.4763 77.323 27.501C77.545 27.5257 77.7793 27.5627 78.026 27.612V27.686H76.287C76.065 27.686 75.9047 27.723 75.806 27.797C75.7073 27.8463 75.658 27.9943 75.658 28.241V31.719H84.501V32.015H79.432V32.348H84.501V32.607C84.2297 32.681 83.946 32.7673 83.65 32.866C83.354 32.94 83.0703 33.014 82.799 33.088V33.31C82.8977 33.31 82.9963 33.3347 83.095 33.384C83.1937 33.4333 83.3417 33.4827 83.539 33.532C83.0703 33.8033 82.614 33.9267 82.17 33.902C81.7507 33.8527 81.319 33.8527 80.875 33.902C80.9243 33.9513 80.9613 33.9883 80.986 34.013C81.0353 34.0377 81.0847 34.0623 81.134 34.087C80.838 34.1363 80.5297 34.1857 80.209 34.235C79.913 34.2843 79.617 34.3337 79.321 34.383V34.864C79.025 34.864 78.729 34.864 78.433 34.864C78.1617 34.864 77.878 34.8393 77.582 34.79V34.901C77.656 34.901 77.73 34.9133 77.804 34.938C77.878 34.9627 77.9767 34.9873 78.1 35.012C77.656 35.0613 77.2367 35.0983 76.842 35.123C76.472 35.123 76.0773 35.1477 75.658 35.197C75.6087 36.5783 75.5593 37.935 75.51 39.267C75.4853 40.599 75.4483 41.9433 75.399 43.3C76.731 43.004 78.0383 42.7697 79.321 42.597C80.6283 42.4243 81.948 42.3997 83.28 42.523C82.7867 42.597 82.2933 42.671 81.8 42.745C81.3067 42.819 80.8133 42.893 80.32 42.967V43.115H83.317V43.263L83.354 43.3ZM75.14 39.859L75.251 39.933V36.418H75.14V39.859ZM73.586 28.093H73.512V31.793H73.586V28.093ZM95.6105 45.224C95.7339 45.224 95.8325 45.2363 95.9065 45.261C95.9805 45.2857 96.0545 45.3103 96.1285 45.335V45.409C96.0052 45.409 95.8695 45.4213 95.7215 45.446C95.5982 45.4707 95.4625 45.4953 95.3145 45.52V45.631H96.8685V45.816H91.2075V48.221H91.1335C91.0595 47.851 90.9855 47.481 90.9115 47.111C90.8375 46.7657 90.7635 46.4203 90.6895 46.075H90.5415V48.073H90.3565C90.3072 47.851 90.2702 47.6413 90.2455 47.444C90.2209 47.2467 90.1715 47.0493 90.0975 46.852C90.0729 46.778 90.0729 46.6793 90.0975 46.556C90.1222 46.408 90.1222 46.2847 90.0975 46.186C90.0975 46.0627 90.0482 45.9887 89.9495 45.964C89.8509 45.9147 89.6659 45.927 89.3945 46.001C89.1232 46.075 88.8272 46.075 88.5065 46.001C88.1859 45.927 87.8652 45.8653 87.5445 45.816C87.4705 45.816 87.3965 45.816 87.3225 45.816C87.2485 45.816 87.1869 45.8407 87.1375 45.89C86.8909 46.1367 86.6689 46.2723 86.4715 46.297C86.2742 46.297 86.0892 46.2477 85.9165 46.149C85.7685 46.0257 85.6082 45.89 85.4355 45.742C85.2875 45.594 85.1272 45.483 84.9545 45.409C84.6339 45.2857 84.4242 45.039 84.3255 44.669C84.2515 44.2743 84.2762 43.9167 84.3995 43.596C84.6215 42.8807 85.1889 42.4983 86.1015 42.449H88.8395V40.747C88.8395 40.9443 88.8272 41.154 88.8025 41.376C88.7779 41.598 88.7655 41.82 88.7655 42.042H88.7285C88.6792 41.6227 88.6422 41.2157 88.6175 40.821C88.5929 40.4263 88.5559 40.0317 88.5065 39.637C88.4819 39.415 88.4695 39.2053 88.4695 39.008C88.4942 38.786 88.3832 38.601 88.1365 38.453C88.0625 38.4037 88.0255 38.2927 88.0255 38.12C88.0255 37.9473 88.0255 37.7993 88.0255 37.676C88.0255 37.158 88.0255 36.6523 88.0255 36.159C88.0255 35.641 88.0009 35.123 87.9515 34.605C87.9515 34.8763 87.9392 35.1477 87.9145 35.419C87.9145 35.6657 87.9022 35.9247 87.8775 36.196H87.8035V34.864C87.7542 33.162 87.7049 31.4723 87.6555 29.795C87.6062 28.1177 87.5569 26.428 87.5075 24.726C87.4829 24.1587 87.5692 23.653 87.7665 23.209C87.9639 22.7403 88.3462 22.3827 88.9135 22.136C89.0369 22.0867 89.1849 22.062 89.3575 22.062C89.5302 22.0373 89.6905 22.0003 89.8385 21.951C89.8385 22.0003 89.8509 22.0373 89.8755 22.062C89.9002 22.0867 89.9125 22.1237 89.9125 22.173C89.7892 22.3457 89.6412 22.5183 89.4685 22.691C89.3205 22.8637 89.1849 23.0487 89.0615 23.246C88.9382 23.4433 88.8272 23.653 88.7285 23.875C88.6299 24.0723 88.5805 24.2697 88.5805 24.467C88.5805 25.873 88.5929 27.2667 88.6175 28.648C88.6669 30.0293 88.7039 31.423 88.7285 32.829V33.088H88.9135V31.608C88.9135 30.5473 88.9012 29.4867 88.8765 28.426C88.8765 27.3653 88.8395 26.2923 88.7655 25.207C88.7162 24.541 88.8149 23.9983 89.0615 23.579C89.3329 23.135 89.7152 22.7527 90.2085 22.432C90.4552 22.5553 90.6772 22.6663 90.8745 22.765C91.0719 22.8637 91.2199 23.0733 91.3185 23.394C91.3679 23.5913 91.3925 23.7517 91.3925 23.875C91.3925 23.9983 91.3062 24.1217 91.1335 24.245C90.9115 24.467 90.8005 24.689 90.8005 24.911C90.8005 26.6377 90.8005 28.352 90.8005 30.054C90.8005 31.756 90.8252 33.4703 90.8745 35.197C90.8992 36.4057 90.9239 37.6143 90.9485 38.823C90.9979 40.0317 91.0472 41.2773 91.0965 42.56H103.418V42.782C103.245 42.8313 103.06 42.8807 102.863 42.93C102.69 42.9547 102.517 42.9917 102.345 43.041V43.226C102.517 43.226 102.678 43.2383 102.826 43.263C102.974 43.2877 103.146 43.3123 103.344 43.337V43.522C102.949 43.596 102.567 43.67 102.197 43.744C101.851 43.7933 101.481 43.855 101.087 43.929V44.114C101.21 44.114 101.346 44.1387 101.494 44.188C101.642 44.2127 101.79 44.2373 101.938 44.262V44.484C101.37 44.6567 100.803 44.7307 100.236 44.706C99.6929 44.6567 99.1379 44.669 98.5705 44.743C98.6939 44.743 98.7925 44.7677 98.8665 44.817V44.891C98.2992 44.9403 97.7319 44.9897 97.1645 45.039C96.6219 45.0637 96.0545 45.1007 95.4625 45.15L95.6105 45.224ZM91.4295 43.115V43.189H101.235V43.115H91.4295ZM90.3195 35.382H90.3935V25.873H90.3195V35.382ZM93.5015 44.817V44.743C93.1315 44.743 92.7615 44.7307 92.3915 44.706C92.0462 44.6813 91.6885 44.6567 91.3185 44.632V44.817H93.5015ZM105.196 43.374L105.085 44.225H104.9C104.85 44.1017 104.813 43.9783 104.789 43.855C104.764 43.707 104.739 43.5713 104.715 43.448C104.665 42.5107 104.616 41.598 104.567 40.71C104.542 39.822 104.468 38.9093 104.345 37.972L104.197 38.379H104.049V27.686C103.851 27.8093 103.642 27.8833 103.42 27.908C103.222 27.9327 103.025 27.9573 102.828 27.982C102.63 28.0067 102.445 28.056 102.273 28.13C102.1 28.204 101.952 28.352 101.829 28.574H100.978C100.904 28.574 100.817 28.5617 100.719 28.537C100.645 28.4877 100.583 28.4383 100.534 28.389C100.336 28.0437 100.176 27.6983 100.053 27.353C99.9292 26.983 99.9416 26.5883 100.09 26.169C100.238 25.7743 100.447 25.503 100.719 25.355C101.015 25.1823 101.348 25.0713 101.718 25.022C102.063 24.9727 102.396 24.9357 102.717 24.911C103.037 24.8617 103.358 24.7877 103.679 24.689C103.802 24.6397 103.888 24.5533 103.938 24.43C103.987 24.282 104.036 24.1833 104.086 24.134C104.036 23.8627 103.987 23.616 103.938 23.394C103.888 23.172 103.888 22.987 103.938 22.839C103.987 22.7157 104.036 22.5923 104.086 22.469C104.135 22.3457 104.197 22.247 104.271 22.173C104.369 22.0743 104.48 22.025 104.604 22.025C104.752 22.0003 104.924 22.0497 105.122 22.173C105.245 22.2223 105.368 22.2717 105.492 22.321C105.615 22.3457 105.738 22.3827 105.862 22.432C106.355 22.5553 106.7 22.7773 106.898 23.098C107.095 23.394 107.218 23.7763 107.268 24.245C107.416 24.245 107.564 24.2573 107.712 24.282C107.884 24.3067 108.057 24.319 108.23 24.319V24.504C108.082 24.5533 107.946 24.6027 107.823 24.652C107.699 24.7013 107.588 24.7507 107.49 24.8C107.687 24.8493 108.02 24.9357 108.489 25.059C108.267 25.1823 108.082 25.281 107.934 25.355C107.786 25.4043 107.65 25.466 107.527 25.54C107.798 25.8113 107.884 26.0087 107.786 26.132C107.687 26.2307 107.49 26.2923 107.194 26.317C107.095 29.6717 106.996 33.0017 106.898 36.307C106.799 39.6123 106.688 42.9177 106.565 46.223H106.343C106.343 46.0257 106.33 45.816 106.306 45.594C106.281 45.372 106.256 45.1623 106.232 44.965H106.084C106.084 45.1377 106.059 45.3103 106.01 45.483C105.985 45.6557 105.948 45.8407 105.899 46.038C105.751 45.9393 105.652 45.8407 105.603 45.742C105.553 45.6187 105.529 45.5077 105.529 45.409C105.529 45.2857 105.541 45.1623 105.566 45.039C105.59 44.9157 105.59 44.8047 105.566 44.706C105.516 44.4593 105.479 44.225 105.455 44.003C105.43 43.781 105.405 43.559 105.381 43.337H105.159L105.196 43.374ZM105.122 27.612H105.011V32.385H105.122V27.612ZM106.454 35.308H106.528V32.126H106.454V35.308ZM126.946 44.41C126.872 44.41 126.823 44.4223 126.798 44.447C126.848 44.595 126.885 44.743 126.909 44.891C126.934 45.039 126.959 45.1747 126.983 45.298L126.872 45.409C126.774 45.2857 126.663 45.1747 126.539 45.076C126.441 44.9773 126.354 44.8663 126.28 44.743C126.058 44.3237 125.824 43.9043 125.577 43.485C125.355 43.0657 125.146 42.6463 124.948 42.227C124.8 41.8817 124.665 41.5487 124.541 41.228C124.418 40.9073 124.258 40.5867 124.06 40.266C123.962 40.0687 123.838 39.8837 123.69 39.711C123.542 39.5383 123.419 39.341 123.32 39.119C123.148 38.749 123 38.3667 122.876 37.972C122.753 37.5527 122.617 37.1457 122.469 36.751C122.321 36.4303 122.124 36.122 121.877 35.826C121.828 35.7767 121.742 35.7643 121.618 35.789C121.495 35.8137 121.384 35.8507 121.285 35.9C121.335 35.974 121.359 36.048 121.359 36.122C121.384 36.1713 121.421 36.2453 121.47 36.344C121.199 36.344 120.915 36.3317 120.619 36.307C120.323 36.2577 120.015 36.2207 119.694 36.196V36.307C119.744 36.307 119.793 36.3193 119.842 36.344C119.892 36.3687 119.941 36.3933 119.99 36.418C119.423 36.4673 118.843 36.529 118.251 36.603C117.684 36.6523 117.117 36.7017 116.549 36.751C116.327 36.751 116.155 36.8127 116.031 36.936C115.933 37.0593 115.859 37.2073 115.809 37.38C115.143 39.2053 114.391 40.9813 113.552 42.708C112.714 44.4347 111.801 46.1243 110.814 47.777C110.74 47.9003 110.654 48.0113 110.555 48.11C110.481 48.2333 110.37 48.332 110.222 48.406L110.925 46.593H110.814C110.666 46.815 110.506 47.037 110.333 47.259C110.185 47.481 110.037 47.6907 109.889 47.888C109.84 47.888 109.803 47.8757 109.778 47.851C109.754 47.8263 109.717 47.8017 109.667 47.777C109.865 47.2837 110.05 46.8027 110.222 46.334C110.42 45.8407 110.617 45.3473 110.814 44.854C110.765 44.854 110.728 44.8417 110.703 44.817C110.703 44.7923 110.679 44.7677 110.629 44.743C110.506 44.891 110.383 45.039 110.259 45.187C110.136 45.335 110.013 45.4953 109.889 45.668C109.865 45.668 109.84 45.668 109.815 45.668C109.815 45.668 109.791 45.6433 109.741 45.594C109.791 45.3967 109.84 45.2117 109.889 45.039C109.939 44.8663 110 44.6937 110.074 44.521C110.272 44.1017 110.469 43.6947 110.666 43.3C110.888 42.9053 111.073 42.4983 111.221 42.079C111.567 41.191 111.838 40.3153 112.035 39.452C112.257 38.5887 112.418 37.6883 112.516 36.751C112.516 36.7017 112.492 36.6523 112.442 36.603C112.418 36.529 112.381 36.4673 112.331 36.418C112.479 36.2207 112.59 36.085 112.664 36.011C112.442 35.863 112.233 35.715 112.035 35.567C111.838 35.3943 111.641 35.2463 111.443 35.123C111.493 34.901 111.542 34.679 111.591 34.457C111.641 34.235 111.715 33.9883 111.813 33.717C111.937 33.717 112.097 33.7047 112.294 33.68C112.516 33.6553 112.726 33.606 112.923 33.532C113.121 33.458 113.293 33.3717 113.441 33.273C113.614 33.1743 113.725 33.051 113.774 32.903C114.07 31.9657 114.342 31.016 114.588 30.054C114.835 29.092 115.094 28.1423 115.365 27.205C114.502 27.1557 113.651 27.1063 112.812 27.057C111.998 27.0077 111.16 26.9337 110.296 26.835C110.025 26.8103 109.815 26.7857 109.667 26.761C109.519 26.7363 109.408 26.6993 109.334 26.65C109.26 26.576 109.199 26.4773 109.149 26.354C109.1 26.2307 109.051 26.0703 109.001 25.873H115.55C114.909 25.8237 114.255 25.7743 113.589 25.725C112.923 25.6757 112.27 25.6263 111.628 25.577C111.258 25.577 110.888 25.577 110.518 25.577C110.148 25.5523 109.791 25.4783 109.445 25.355C109.248 25.3057 109.088 25.1947 108.964 25.022C108.866 24.8247 108.755 24.6643 108.631 24.541C108.779 24.2697 108.903 24.0477 109.001 23.875C109.125 23.6777 109.236 23.5173 109.334 23.394C110.444 23.394 111.53 23.4063 112.59 23.431C113.651 23.4557 114.712 23.4803 115.772 23.505C115.871 23.505 115.982 23.4927 116.105 23.468C116.229 23.4187 116.29 23.3693 116.29 23.32C116.34 22.9747 116.475 22.7033 116.697 22.506C116.919 22.3087 117.129 22.099 117.326 21.877C117.45 21.729 117.598 21.6057 117.77 21.507C117.968 21.4083 118.128 21.2973 118.251 21.174C118.251 21.2233 118.251 21.2603 118.251 21.285C118.276 21.3343 118.288 21.3837 118.288 21.433C118.288 21.4577 118.301 21.4947 118.325 21.544C118.523 21.544 118.634 21.4823 118.658 21.359C118.708 21.211 118.745 21.063 118.769 20.915C118.794 20.7423 118.843 20.6067 118.917 20.508C119.016 20.3847 119.201 20.36 119.472 20.434C119.522 20.2613 119.546 20.0887 119.546 19.916C119.571 19.7433 119.608 19.5583 119.657 19.361C120.077 19.435 120.36 19.842 120.508 20.582C120.656 21.322 120.644 22.2717 120.471 23.431C122.346 23.209 124.196 22.9993 126.021 22.802C127.871 22.58 129.721 22.3703 131.571 22.173V22.358C131.399 22.4073 131.226 22.469 131.053 22.543C130.881 22.5923 130.708 22.6417 130.535 22.691V22.839L131.719 22.913V23.098C131.473 23.1967 131.238 23.283 131.016 23.357C130.794 23.4063 130.572 23.468 130.35 23.542C130.128 23.616 129.906 23.69 129.684 23.764C129.487 23.838 129.277 23.9613 129.055 24.134C129.228 24.134 129.388 24.134 129.536 24.134C129.684 24.134 129.882 24.1587 130.128 24.208C129.956 24.3313 129.808 24.43 129.684 24.504C129.561 24.578 129.438 24.6397 129.314 24.689C128.426 24.8863 127.538 25.0713 126.65 25.244C125.787 25.4167 124.911 25.614 124.023 25.836C123.826 25.8853 123.641 25.984 123.468 26.132C123.296 26.28 123.234 26.502 123.283 26.798C123.703 28.796 124.147 30.794 124.615 32.792C124.911 32.792 125.207 32.792 125.503 32.792C125.824 32.792 126.132 32.8167 126.428 32.866V33.014C126.206 33.088 125.984 33.162 125.762 33.236C125.54 33.2853 125.318 33.3347 125.096 33.384C125.294 33.4333 125.491 33.4827 125.688 33.532C125.91 33.5567 126.12 33.5937 126.317 33.643V33.865C126.095 33.9143 125.873 33.976 125.651 34.05C125.454 34.124 125.257 34.1857 125.059 34.235C125.281 35.3203 125.553 36.381 125.873 37.417C126.194 38.4283 126.539 39.4397 126.909 40.451C127.279 41.4623 127.649 42.4737 128.019 43.485C128.414 44.4717 128.772 45.483 129.092 46.519C128.969 46.3217 128.846 46.1243 128.722 45.927C128.624 45.7297 128.513 45.5323 128.389 45.335C128.365 45.335 128.34 45.335 128.315 45.335L128.241 45.409C128.291 45.6063 128.34 45.8037 128.389 46.001C128.439 46.1737 128.488 46.3587 128.537 46.556C128.488 46.556 128.426 46.593 128.352 46.667C128.106 46.297 127.859 45.927 127.612 45.557C127.39 45.1623 127.168 44.78 126.946 44.41ZM116.882 27.131C116.759 27.131 116.685 27.1063 116.66 27.057C116.389 28.0437 116.105 29.0303 115.809 30.017C115.538 31.0037 115.267 31.978 114.995 32.94C115.094 32.94 115.156 32.9647 115.18 33.014C115.476 32.0273 115.76 31.053 116.031 30.091C116.327 29.1043 116.623 28.1177 116.919 27.131H116.882ZM119.768 26.724C119.645 26.8473 119.509 26.946 119.361 27.02C119.238 27.0693 119.152 27.1433 119.102 27.242C118.831 28.204 118.56 29.1783 118.288 30.165C118.017 31.127 117.733 32.089 117.437 33.051H120.36C120.681 33.051 120.915 33.014 121.063 32.94C121.211 32.866 121.199 32.5947 121.026 32.126C120.755 31.2873 120.521 30.4363 120.323 29.573C120.151 28.685 119.953 27.7477 119.731 26.761H119.768V26.724ZM120.989 26.724L122.284 32.755H122.469C122.272 31.7437 122.062 30.7447 121.84 29.758C121.643 28.7467 121.446 27.7353 121.248 26.724H120.989Z" fill="white"/>
</svg>
